<!DOCTYPE svg PUBLIC "-//W3C//DTD SVG 1.1//EN" "http://www.w3.org/Graphics/SVG/1.1/DTD/svg11.dtd">
<!-- Uploaded to: SVG Repo, www.svgrepo.com, Transformed by: SVG Repo Mixer Tools -->
<svg height="800px" width="800px" version="1.1" id="Layer_1" xmlns="http://www.w3.org/2000/svg" xmlns:xlink="http://www.w3.org/1999/xlink" viewBox="0 0 512 512" xml:space="preserve" fill="#000000">
<g id="SVGRepo_bgCarrier" stroke-width="0"/>
<g id="SVGRepo_tracerCarrier" stroke-linecap="round" stroke-linejoin="round"/>
<g id="SVGRepo_iconCarrier"> <path style="fill:#959CB3;" d="M238.345,467.862v35.31c0,4.875,3.953,8.828,8.828,8.828h17.655c4.875,0,8.828-3.953,8.828-8.828 v-35.31H238.345z"/> <path style="fill:#C7CFE2;" d="M308.966,388.414H203.035v59.709c0,6.687,3.778,12.801,9.76,15.791l25.55,12.776h35.31l25.55-12.776 c5.982-2.99,9.76-9.103,9.76-15.791V388.414z"/> <path style="fill:#AFB9D2;" d="M308.966,441.379v-17.655h-61.793v-35.31h-44.138v59.709c0,6.688,3.778,12.801,9.76,15.791 l25.55,12.776h32.367l-17.034-12.776c-3.988-2.99-6.506-9.103-6.506-15.791v-6.743H308.966z"/> <path style="fill:#FFDC64;" d="M432.552,176.552c0-100.692-84.292-181.695-186.163-176.297 C152.602,5.225,77.898,85.66,79.473,179.565c1.126,67.144,39.81,125.018,95.9,153.866c11.8,6.068,18.835,18.625,18.835,31.893v23.09 c0,4.875,3.953,8.828,8.828,8.828h105.931c4.875,0,8.828-3.953,8.828-8.828v-23.807c0-13.113,7.24-25.207,18.899-31.21 C393.584,304.108,432.552,244.948,432.552,176.552z"/> <circle style="fill:#FFF082;" cx="256" cy="176.552" r="141.241"/> <path style="fill:#FFC850;" d="M282.483,171.819v-60.757c10.965,4.729,17.655,12.012,17.655,18.868c0,4.875,3.948,8.828,8.828,8.828 s8.828-3.953,8.828-8.828c0-16.921-14.285-31.147-35.31-37.724V79.448c0-4.875-3.948-8.828-8.828-8.828 c-4.879,0-8.828,3.953-8.828,8.828v9.281c-2.886-0.268-5.815-0.454-8.828-0.454c-3.012,0-5.942,0.185-8.828,0.454v-9.281 c0-4.875-3.948-8.828-8.828-8.828c-4.879,0-8.828,3.953-8.828,8.828v12.759c-21.025,6.577-35.31,20.802-35.31,37.724 c0,22.404,15.026,34.191,35.31,42.526v60.757c-10.965-4.729-17.655-12.012-17.655-18.868c0-4.875-3.948-8.828-8.828-8.828 c-4.879,0-8.828,3.953-8.828,8.828c0,16.921,14.285,31.147,35.31,37.724v12.758c0,4.875,3.948,8.828,8.828,8.828 c4.879,0,8.828-3.953,8.828-8.828v-9.281c2.886,0.268,5.815,0.454,8.828,0.454c3.012,0,5.942-0.185,8.828-0.454v9.281 c0,4.875,3.948,8.828,8.828,8.828c4.879,0,8.828-3.953,8.828-8.828v-12.759c21.025-6.577,35.31-20.802,35.31-37.724 C317.793,191.941,302.768,180.154,282.483,171.819z M256,105.931c3.065,0,5.998,0.205,8.828,0.533v59.124 c-2.091-0.649-4.2-1.288-6.327-1.916c-4.104-1.212-7.852-2.391-11.328-3.558v-53.651C250.002,106.135,252.935,105.931,256,105.931z M211.862,129.931c0-6.856,6.69-14.138,17.655-18.868v41.972C216.646,146.578,211.862,139.701,211.862,129.931z M256,238.345 c-3.065,0-5.998-0.205-8.828-0.533v-59.124c2.091,0.649,4.2,1.288,6.327,1.916c4.104,1.212,7.852,2.391,11.328,3.558v53.651 C261.999,238.14,259.064,238.345,256,238.345z M282.483,233.213v-41.972c12.872,6.457,17.655,13.334,17.655,23.104 C300.138,221.201,293.447,228.483,282.483,233.213z"/> </g>
</svg>